<?xml version="1.0" encoding="UTF-8" standalone="no"?>
<svg
   width="924.75"
   height="992.46002"
   viewBox="0 0 924.75 992.46"
   version="1.1"
   id="svg246"
   sodipodi:docname="AIhead.svg"
   inkscape:version="1.2.2 (b0a84865, 2022-12-01)"
   xmlns:inkscape="http://www.inkscape.org/namespaces/inkscape"
   xmlns:sodipodi="http://sodipodi.sourceforge.net/DTD/sodipodi-0.dtd"
   xmlns:xlink="http://www.w3.org/1999/xlink"
   xmlns="http://www.w3.org/2000/svg"
   xmlns:svg="http://www.w3.org/2000/svg">
  <sodipodi:namedview
     id="namedview535"
     pagecolor="#ffffff"
     bordercolor="#000000"
     borderopacity="0.25"
     inkscape:showpageshadow="2"
     inkscape:pageopacity="0.0"
     inkscape:pagecheckerboard="0"
     inkscape:deskcolor="#d1d1d1"
     showgrid="false"
     inkscape:zoom="0.23779295"
     inkscape:cx="462.5873"
     inkscape:cy="496.23001"
     inkscape:window-width="1309"
     inkscape:window-height="456"
     inkscape:window-x="0"
     inkscape:window-y="0"
     inkscape:window-maximized="0"
     inkscape:current-layer="svg246" />
  <defs
     id="defs77">
    <linearGradient
       id="ac"
       x1="460.79001"
       y1="875.28998"
       x2="460.79001"
       y2="186.42999"
       gradientUnits="userSpaceOnUse">
      <stop
         offset=".35"
         stop-color="#bbcfff"
         id="stop15" />
      <stop
         offset=".53"
         stop-color="#694ab7"
         id="stop16" />
      <stop
         offset=".7"
         stop-color="#381679"
         id="stop17" />
      <stop
         offset="1"
         stop-color="#3d1d7b"
         id="stop18" />
    </linearGradient>
    <linearGradient
       id="ag"
       x1="460.98001"
       y1="783.32001"
       x2="460.98001"
       y2="689.83002"
       gradientUnits="userSpaceOnUse">
      <stop
         offset=".19"
         stop-color="#5c14e3"
         stop-opacity=".75"
         id="stop19" />
      <stop
         offset=".23"
         stop-color="#6d32e8"
         stop-opacity=".7"
         id="stop20" />
      <stop
         offset=".35"
         stop-color="#9d84f5"
         stop-opacity=".55"
         id="stop21" />
      <stop
         offset=".41"
         stop-color="#b0a4fb"
         stop-opacity=".5"
         id="stop22" />
      <stop
         offset=".69"
         stop-color="#f6f7fe"
         stop-opacity="0"
         id="stop23" />
    </linearGradient>
    <linearGradient
       id="as"
       x1="320.60999"
       y1="494.17001"
       x2="294.84"
       y2="538.79999"
       gradientUnits="userSpaceOnUse">
      <stop
         offset="0"
         stop-color="#170024"
         id="stop24" />
      <stop
         offset=".48"
         stop-color="#19003b"
         id="stop25" />
      <stop
         offset=".72"
         stop-color="#1d1185"
         id="stop26" />
      <stop
         offset="1"
         stop-color="#131aab"
         id="stop27" />
    </linearGradient>
    <linearGradient
       id="at"
       x1="264.28"
       y1="513.78998"
       x2="363.70001"
       y2="513.78998"
       gradientUnits="userSpaceOnUse">
      <stop
         offset="0"
         stop-color="#20229e"
         id="stop28" />
      <stop
         offset=".04"
         stop-color="#3a5db8"
         id="stop29" />
      <stop
         offset=".08"
         stop-color="#affffc"
         id="stop30" />
      <stop
         offset=".81"
         stop-color="#7cfffe"
         id="stop31" />
      <stop
         offset=".9"
         stop-color="#22a8f0"
         id="stop32" />
      <stop
         offset=".97"
         stop-color="#172fb2"
         id="stop33" />
    </linearGradient>
    <linearGradient
       id="au"
       x1="320.60999"
       y1="494.17001"
       x2="294.84"
       y2="538.79999"
       gradientTransform="matrix(-1,0,0,1,921.58,0)"
       xlink:href="#as" />
    <linearGradient
       id="av"
       x1="264.28"
       y1="513.78998"
       x2="363.70001"
       y2="513.78998"
       gradientTransform="matrix(-1,0,0,1,921.58,0)"
       xlink:href="#at" />
    <linearGradient
       id="ay"
       x1="310.17001"
       y1="538.34998"
       x2="326.29001"
       y2="510.42999"
       gradientTransform="rotate(-3.9,318.08488,524.83192)"
       gradientUnits="userSpaceOnUse">
      <stop
         offset=".09"
         stop-color="#b2bbff"
         id="stop34" />
      <stop
         offset=".85"
         stop-color="#0e09b7"
         stop-opacity=".5"
         id="stop35" />
    </linearGradient>
    <linearGradient
       id="az"
       x1="310.17001"
       y1="538.34998"
       x2="326.29001"
       y2="510.42999"
       gradientTransform="matrix(-0.99768428,-0.06801529,-0.06801529,0.99768428,956.55,22.85)"
       xlink:href="#ay" />
    <linearGradient
       id="bc"
       x1="299.98999"
       y1="200.31"
       x2="390.35999"
       y2="290.67999"
       gradientUnits="userSpaceOnUse">
      <stop
         offset=".35"
         stop-color="#170222"
         id="stop36" />
      <stop
         offset="1"
         stop-color="#3d1d7b"
         id="stop37" />
    </linearGradient>
    <linearGradient
       id="bd"
       x1="299.98999"
       y1="200.31"
       x2="390.35999"
       y2="290.67999"
       gradientTransform="matrix(-1,0,0,1,921.58,0)"
       gradientUnits="userSpaceOnUse">
      <stop
         offset=".35"
         stop-color="#170222"
         id="stop38" />
      <stop
         offset="1"
         stop-color="#3d1d7b"
         id="stop39" />
    </linearGradient>
    <radialGradient
       id="bf"
       cx="313.70001"
       cy="226.14999"
       fx="313.70001"
       fy="226.14999"
       r="20.459999"
       gradientTransform="rotate(51.21,313.69723,226.1397)"
       gradientUnits="userSpaceOnUse">
      <stop
         offset="0"
         stop-color="#0b3e7d"
         id="stop40" />
      <stop
         offset="1"
         stop-color="#011561"
         id="stop41" />
    </radialGradient>
    <radialGradient
       id="bg"
       cx="313.70001"
       cy="226.14999"
       fx="313.70001"
       fy="226.14999"
       r="20.459999"
       gradientTransform="matrix(0.62646778,-0.77944732,-0.77944732,-0.62646778,587.62,612.34)"
       xlink:href="#bf" />
    <linearGradient
       id="bk"
       x1="215.34"
       y1="360.94"
       x2="390.82999"
       y2="360.94"
       gradientUnits="userSpaceOnUse">
      <stop
         offset=".31"
         stop-color="#000"
         id="stop42" />
      <stop
         offset=".42"
         stop-color="#000103"
         id="stop43" />
      <stop
         offset=".5"
         stop-color="#00040c"
         id="stop44" />
      <stop
         offset=".57"
         stop-color="#020b1c"
         id="stop45" />
      <stop
         offset=".64"
         stop-color="#031333"
         id="stop46" />
      <stop
         offset=".71"
         stop-color="#061f51"
         id="stop47" />
      <stop
         offset=".77"
         stop-color="#082c76"
         id="stop48" />
      <stop
         offset=".83"
         stop-color="#0b3da0"
         id="stop49" />
      <stop
         offset=".85"
         stop-color="#0d43b0"
         id="stop50" />
      <stop
         offset="1"
         stop-color="#0d43b0"
         id="stop51" />
    </linearGradient>
    <linearGradient
       id="bl"
       x1="215.34"
       y1="360.94"
       x2="390.82999"
       y2="360.94"
       gradientTransform="matrix(-1,0,0,1,921.58,0)"
       xlink:href="#bk" />
    <linearGradient
       id="bn"
       x1="306.26001"
       y1="356.32001"
       x2="303.10001"
       y2="320.20001"
       gradientUnits="userSpaceOnUse">
      <stop
         offset="0"
         stop-color="#0d43b0"
         id="stop52" />
      <stop
         offset=".15"
         stop-color="#0d43b0"
         id="stop53" />
      <stop
         offset=".17"
         stop-color="#0b3da0"
         id="stop54" />
      <stop
         offset=".23"
         stop-color="#082c76"
         id="stop55" />
      <stop
         offset=".29"
         stop-color="#061f51"
         id="stop56" />
      <stop
         offset=".36"
         stop-color="#031333"
         id="stop57" />
      <stop
         offset=".43"
         stop-color="#020b1c"
         id="stop58" />
      <stop
         offset=".5"
         stop-color="#00040c"
         id="stop59" />
      <stop
         offset=".58"
         stop-color="#000103"
         id="stop60" />
      <stop
         offset=".69"
         stop-color="#000"
         id="stop61" />
    </linearGradient>
    <linearGradient
       id="bo"
       x1="306.26001"
       y1="356.32001"
       x2="303.10001"
       y2="320.20001"
       gradientTransform="matrix(-1,0,0,1,921.58,0)"
       xlink:href="#bn" />
    <radialGradient
       id="bq"
       cx="460.79001"
       cy="331.20001"
       fx="460.79001"
       fy="331.20001"
       r="58.73"
       gradientUnits="userSpaceOnUse">
      <stop
         offset="0"
         stop-color="#381679"
         id="stop62" />
      <stop
         offset="1"
         stop-color="#290851"
         id="stop63" />
    </radialGradient>
    <linearGradient
       id="br"
       x1="450.56"
       y1="252.24001"
       x2="450.56"
       y2="237.14"
       gradientUnits="userSpaceOnUse">
      <stop
         offset="0"
         stop-color="#0d43b0"
         id="stop64" />
      <stop
         offset=".15"
         stop-color="#0d43b0"
         id="stop65" />
      <stop
         offset=".36"
         stop-color="#09349c"
         id="stop66" />
      <stop
         offset=".77"
         stop-color="#021b7c"
         id="stop67" />
      <stop
         offset="1"
         stop-color="#001270"
         id="stop68" />
    </linearGradient>
    <linearGradient
       id="bs"
       x1="450.56"
       y1="252.24001"
       x2="450.56"
       y2="237.14"
       gradientTransform="matrix(-1,0,0,1,921.58,0)"
       xlink:href="#br" />
    <linearGradient
       id="bt"
       x1="278.81"
       y1="358.39001"
       x2="277.23001"
       y2="340.32999"
       gradientUnits="userSpaceOnUse">
      <stop
         offset=".12"
         stop-color="#0d43b0"
         id="stop69" />
      <stop
         offset=".18"
         stop-color="#1d4fb5"
         id="stop70" />
      <stop
         offset=".3"
         stop-color="#4971c3"
         id="stop71" />
      <stop
         offset=".47"
         stop-color="#8fa8da"
         id="stop72" />
      <stop
         offset=".68"
         stop-color="#eff2f9"
         id="stop73" />
      <stop
         offset=".72"
         stop-color="#fff"
         id="stop74" />
    </linearGradient>
    <linearGradient
       id="bu"
       x1="278.81"
       y1="358.39001"
       x2="277.23001"
       y2="340.32999"
       gradientTransform="matrix(-1,0,0,1,921.58,0)"
       xlink:href="#bt" />
    <linearGradient
       id="bw"
       x1="461.76001"
       y1="529.79999"
       x2="461.76001"
       y2="408"
       gradientUnits="userSpaceOnUse">
      <stop
         offset="0"
         stop-color="#181b7d"
         id="stop75" />
      <stop
         offset=".69"
         stop-color="#270d4a"
         id="stop76" />
      <stop
         offset="1"
         stop-color="#0d43b0"
         id="stop77" />
    </linearGradient>
    <linearGradient
       xlink:href="#as"
       id="linearGradient247"
       gradientUnits="userSpaceOnUse"
       x1="320.60999"
       y1="494.17001"
       x2="294.84"
       y2="538.79999" />
    <linearGradient
       xlink:href="#at"
       id="linearGradient248"
       gradientUnits="userSpaceOnUse"
       x1="264.28"
       y1="513.78998"
       x2="363.70001"
       y2="513.78998" />
    <linearGradient
       xlink:href="#ay"
       id="linearGradient249"
       gradientUnits="userSpaceOnUse"
       gradientTransform="rotate(-3.9,318.08488,524.83192)"
       x1="310.17001"
       y1="538.34998"
       x2="326.29001"
       y2="510.42999" />
    <radialGradient
       xlink:href="#bf"
       id="radialGradient249"
       gradientUnits="userSpaceOnUse"
       gradientTransform="rotate(51.21,313.69723,226.1397)"
       cx="313.70001"
       cy="226.14999"
       fx="313.70001"
       fy="226.14999"
       r="20.459999" />
    <linearGradient
       xlink:href="#bk"
       id="linearGradient250"
       gradientUnits="userSpaceOnUse"
       x1="215.34"
       y1="360.94"
       x2="390.82999"
       y2="360.94" />
    <linearGradient
       xlink:href="#bn"
       id="linearGradient251"
       gradientUnits="userSpaceOnUse"
       x1="306.26001"
       y1="356.32001"
       x2="303.10001"
       y2="320.20001" />
    <linearGradient
       xlink:href="#br"
       id="linearGradient252"
       gradientUnits="userSpaceOnUse"
       x1="450.56"
       y1="252.24001"
       x2="450.56"
       y2="237.14" />
    <linearGradient
       xlink:href="#bt"
       id="linearGradient253"
       gradientUnits="userSpaceOnUse"
       x1="278.81"
       y1="358.39001"
       x2="277.23001"
       y2="340.32999" />
  </defs>
  <g
     id="g"
     transform="translate(4.4070725,53.0223)">
    <g
       id="h">
      <g
         id="l" />
    </g>
    <g
       id="n">
      <g
         id="o">
        <path
           d="M 500.18,876.35 C 703.29,833.26 840.04,738.47 849.1,600.42 c 0.76,-11.57 -2.06,-23.17 -5.62,-34.6 -0.33,-1.44 -16.28,-47.87 -32.25,-73.89 -0.97,-1.58 -1.9,-3.06 -2.79,-4.49 -0.98,-218.46 -152.43,-303.06 -336.82,-315.11 -7.2,-0.47 -14.43,-0.47 -21.63,0 -184.39,12.05 -335.84,96.65 -336.82,315.11 -0.9,1.42 -1.82,2.91 -2.79,4.49 -15.97,26.02 -31.92,72.44 -32.25,73.89 -3.57,11.43 -6.38,23.03 -5.62,34.6 9.07,138.06 145.81,232.84 348.92,275.93 25.83,5.52 52.09,5.56 78.77,0 z"
           style="fill:#270751;stroke:#000000;stroke-width:12px;stroke-miterlimit:10"
           id="path157" />
      </g>
    </g>
    <g
       id="p">
      <path
         id="q"
         d="M 145.01,354.68 C 104.09,331 129.27,81.81 171.77,22.27 215.09,-25.16 264.05,9.19 320.66,104.65 l 61.71,109.71 -237.36,140.31 z"
         style="fill:#371b72" />
      <g
         id="r">
        <path
           d="M 147.65,311.42 C 149.41,74.25 200.81,-42.7 292.7,220.17 269.44,262.5 244.15,306.29 149.07,350.26 l -1.42,-38.83 z"
           style="fill:#4b35b5"
           id="path158" />
        <path
           d="m 182.03,345.31 c -10.15,-12.56 -25.53,-31.53 -31.85,-44.9 -6.88,15.08 0.02,45.99 16.88,67.78 z"
           style="fill:#3b0d75"
           id="path159" />
        <path
           d="m 196.31,306.68 c -0.08,-0.21 -0.16,-0.41 -0.23,-0.62 -7.06,-18.53 -16.8,-35.48 -28.64,-51.2 l 11.34,24.33 c 0.59,3.09 -0.21,4.33 -3.03,2.9 l -13.78,-14.31 c 8.69,13.1 16.23,25.48 19.32,35.08 1.66,4.96 -0.14,4.86 -3.3,2.77 l -24.53,-24.4 18.99,24.92 c 0.36,3.37 -0.4,5.4 -3.96,4.09 l -19.25,-23.6 22.95,40.62 4.09,19.78 34.55,-26.11 -14.74,-14.86"
           style="fill:#300751"
           id="path160" />
      </g>
      <g
         id="t">
        <path
           d="m 147.65,359.09 c -13.76,-12.64 -22.47,-36.98 -23.67,-67.48 -1.66,-42.15 2.49,-101.59 10.57,-151.43 7.28,-44.93 21.1,-103.64 45.59,-128.17 8.31,-8.32 17.42,-12.35 27.07,-11.99 32.99,1.23 70.84,32.73 112.52,93.62 31.37,45.83 54.21,93.06 57.41,100.47 l -16.99,4.76 c -3.12,-7.23 -25.46,-53.4 -56.29,-98.45 C 265,43.65 235.34,20.37 206.77,19.3 c -6.27,-0.23 -12.19,2.54 -18.12,8.48 -39.99,40.07 -55.54,190.21 -52.67,263.37 1.09,27.67 9.44,49.6 19.79,59.11 l -8.12,8.84 z"
           id="path161" />
      </g>
      <path
         id="u"
         d="m 194.59,308.79 c -4.66,-47.95 -3.85,-101.29 3.69,-130.21 15.05,27.04 28.42,55.67 40.09,85.9 l 22.68,-30.07 3.16,-18.46 3.16,14.24 8.97,-12.66 C 289.38,153.14 268.89,104.72 235.46,62.45 195.41,9.8 159.96,59.88 134.98,238.63 c 1.96,-79.79 18.8,-170.21 51.64,-203.04 28.18,-28.18 69.52,21.42 98.36,90.57 2.03,4.88 3.66,9.92 4.71,15.1 4.18,20.54 4.26,43.38 4.33,65.33 16.38,-10.69 29.03,-8.95 37.98,5.14 l -54.2,64.09 -58.55,40.75 z"
         style="fill:#17001b" />
    </g>
    <g
       id="v">
      <path
         id="w"
         d="M 776.57,354.68 C 817.49,331 792.25,83.76 749.76,24.22 706.44,-23.21 657.54,9.19 600.92,104.66 l -61.71,109.71 z"
         style="fill:#371b72" />
      <path
         d="M 773.93,311.42 C 772.17,74.25 720.77,-42.7 628.88,220.17 c 23.26,42.33 48.55,86.12 143.63,130.09 l 1.42,-38.83 z"
         style="fill:#4b35b5"
         id="path162" />
      <path
         d="m 739.55,345.31 c 10.15,-12.56 25.53,-31.53 31.85,-44.9 6.88,15.08 -0.02,45.99 -16.88,67.78 z"
         style="fill:#3b0d75"
         id="path163" />
      <path
         d="m 725.27,306.68 c 0.08,-0.21 0.16,-0.41 0.23,-0.62 7.06,-18.53 16.8,-35.48 28.64,-51.2 l -11.34,24.33 c -0.59,3.09 0.21,4.33 3.03,2.9 l 13.78,-14.31 c -8.69,13.1 -16.23,25.48 -19.32,35.08 -1.66,4.96 0.14,4.86 3.3,2.77 l 24.53,-24.4 -18.99,24.92 c -0.36,3.37 0.4,5.4 3.96,4.09 l 19.25,-23.6 -22.95,40.62 -4.09,19.78 -34.55,-26.11 14.74,-14.86"
         style="fill:#300751"
         id="path164" />
      <g
         id="x">
        <path
           d="M 773.93,359.09 C 787.69,346.45 796.4,322.11 797.6,291.61 799.26,249.46 795.11,190.02 787.03,140.18 779.75,95.25 765.93,36.54 741.44,12.01 733.14,3.69 724.03,-0.34 714.38,0.02 681.39,1.25 643.54,32.75 601.86,93.64 570.49,139.47 547.65,186.7 544.45,194.11 l 16.99,4.76 c 3.12,-7.23 25.46,-53.4 56.29,-98.45 38.86,-56.77 68.52,-80.05 97.09,-81.12 6.27,-0.23 12.19,2.54 18.12,8.48 39.99,40.07 55.54,190.21 52.67,263.37 -1.09,27.67 -9.44,49.6 -19.79,59.11 l 8.12,8.84 z"
           id="path165" />
      </g>
      <path
         id="y"
         d="m 726.99,308.79 c 4.66,-47.95 3.85,-101.29 -3.69,-130.21 -15.05,27.04 -28.42,55.67 -40.09,85.9 l -22.68,-30.07 -3.16,-18.46 -3.16,14.24 -8.97,-12.66 C 632.2,153.14 652.69,104.72 686.12,62.45 726.17,9.8 761.62,59.88 786.6,238.63 784.64,158.84 767.8,68.42 734.96,35.59 706.78,7.41 665.44,57.01 636.6,126.16 c -2.03,4.88 -3.66,9.92 -4.71,15.1 -4.18,20.54 -4.26,43.38 -4.33,65.33 -16.38,-10.69 -29.03,-8.95 -37.98,5.14 l 54.2,64.09 58.55,40.75 z"
         style="fill:#17001b" />
      <g
         id="g169">
        <path
           d="m 160.41,110.92 c -2.7,9.06 -5.34,19.06 -7.91,30 -10.84,113.26 -18.6,193.03 2,211.91 l 3.35,3.3 -1.51,-6.33 C 136.83,314.63 144.9,220.71 160.4,110.92 Z"
           style="fill:#ffffdc"
           id="path166" />
        <g
           id="g168">
          <path
             d="m 761.17,110.92 c 15.5,109.78 23.57,203.71 4.06,238.88 l -1.51,6.33 3.35,-3.3 c 20.6,-18.88 12.84,-98.65 2,-211.91 -2.57,-10.95 -5.2,-20.94 -7.91,-30 z"
             style="fill:#ffffdc"
             id="path167" />
          <path
             d="m 714.77,27.66 c 7.18,-0.69 14,1.74 20.19,7.93 11.86,11.86 21.63,31.23 29.37,54.9 -0.23,-2.48 -0.45,-4.96 -0.68,-7.46 -0.91,-10.08 -3,-19.3 -7.63,-28.29 C 714.42,-29.29 647.48,30.63 563.16,189.22 525.3,177.9 495.18,174.88 460.79,175.14 426.4,174.89 396.28,177.9 358.42,189.22 274.11,30.63 207.16,-29.29 165.57,54.74 c -4.63,8.99 -6.72,18.21 -7.63,28.29 -0.23,2.5 -0.45,4.99 -0.68,7.46 7.74,-23.67 17.51,-43.04 29.37,-54.9 6.19,-6.19 13,-8.62 20.19,-7.93 16.54,-0.62 35.94,12.8 57.94,38.89 25.09,30.78 56.47,68.54 82.92,139.79 72.83,-26.07 147.99,-27.02 226.68,0 26.45,-71.25 57.39,-109.01 82.48,-139.79 21.99,-26.09 41.4,-39.5 57.94,-38.89 z"
             style="fill:#ffffdc"
             id="path168" />
        </g>
      </g>
    </g>
    <g
       id="z">
      <line
         x1="256.64999"
         y1="92.059998"
         x2="291.85999"
         y2="65.949997"
         style="fill:none;stroke:#000000;stroke-width:8px;stroke-miterlimit:10"
         id="line169" />
      <line
         x1="262.98001"
         y1="102.92"
         x2="298.19"
         y2="76.809998"
         style="fill:none;stroke:#000000;stroke-width:8px;stroke-miterlimit:10"
         id="line170" />
      <g
         id="g172">
        <line
           x1="664.92999"
           y1="92.059998"
           x2="629.71997"
           y2="65.949997"
           style="fill:none;stroke:#000000;stroke-width:8px;stroke-miterlimit:10"
           id="line171" />
        <line
           x1="658.59998"
           y1="102.92"
           x2="623.39001"
           y2="76.809998"
           style="fill:none;stroke:#000000;stroke-width:8px;stroke-miterlimit:10"
           id="line172" />
      </g>
    </g>
    <g
       id="ab">
      <path
         d="m 842.41,561.44 c -5.28,-20.31 -15.22,-43.5 -31.19,-69.52 -11.79,-19.2 -18.07,-26.2 -24.78,-41.94 -3.07,-7.2 -5.11,-14.79 -6.18,-22.53 C 764.66,314.75 649.8,194.77 460.79,186.43 265.34,194.77 156.92,314.75 141.32,427.45 c -1.07,7.75 -3.12,15.34 -6.18,22.53 -6.7,15.74 -12.99,22.74 -24.78,41.94 -15.97,26.02 -25.91,49.21 -31.19,69.52 -5.37,20.63 -5.57,38.2 -2.84,59.34 11.44,127.04 192.14,238.05 381.47,254.51 1,0 1.99,0 2.99,-0.02 1,0 1.99,0.02 2.99,0.02 189.34,-16.46 370.04,-127.47 381.47,-254.51 2.72,-21.14 2.52,-38.71 -2.84,-59.34 z"
         style="fill:url(#ac)"
         id="path172" />
      <path
         d="m 145.08,440.59 c -8.49,30.56 -25.36,58.99 -40.68,84.41 -8.85,14.69 -13.31,26.54 -16.88,40.67 -3.2,12.68 -7.09,24.77 -5.74,34.35 5.36,27.92 13.19,53.17 24.2,74.97 10.87,11.72 10.46,8.82 4.88,-0.79 -19.72,-32.39 -24.13,-76.75 -24.13,-76.75 0,0 11.9,62.83 57.76,110.77 42.54,44.47 97.82,85.61 135.3,109.58 C 181.99,774.3 105.38,713.92 82.38,633.05 69.63,596.63 75.23,559.68 96.23,522.28 c 18.8,-33.82 37.92,-68.12 45.49,-85.05 l 2.24,-10.15 1.12,13.52 z"
         style="fill:#ffffdc;fill-rule:evenodd"
         id="path173" />
      <path
         d="m 776.44,440.59 c 8.49,30.56 25.36,58.99 40.68,84.41 8.85,14.69 13.31,26.54 16.88,40.67 3.2,12.68 7.09,24.77 5.74,34.35 -5.36,27.92 -13.19,53.17 -24.2,74.97 -10.87,11.72 -10.46,8.82 -4.88,-0.79 19.72,-32.39 24.13,-76.75 24.13,-76.75 0,0 -11.9,62.83 -57.76,110.77 -42.54,44.47 -97.82,85.61 -135.3,109.58 97.8,-43.5 174.41,-103.88 197.41,-184.75 12.75,-36.42 7.15,-73.37 -13.85,-110.77 -18.8,-33.82 -37.92,-68.12 -45.49,-85.05 l -2.24,-10.15 -1.12,13.52 z"
         style="fill:#ffffdc;fill-rule:evenodd"
         id="path174" />
      <g
         id="ad">
        <path
           d="m 787.26,533 c -32.5,-31.37 -73.36,-36.99 -99.96,-25.75 -7.38,3.12 -11.82,8.82 -16.66,14.34 -17.02,22.57 -2.46,36.3 -39.91,58.45 -9.77,5.78 -39.43,0.13 -53.9,-6.23 -3.42,-1.51 -13.15,-6.92 -21.66,-12.56 -3.16,-2.09 -6.5,-2.51 -8.57,-3.49 -0.72,20.99 -4.43,42 -11.08,63.03 -20.06,-20.37 -45.53,-29.1 -74.73,-29.8 -29.2,0.7 -54.66,9.43 -74.73,29.8 -6.64,-21.03 -10.36,-42.04 -11.08,-63.03 -2.07,0.99 -5.41,1.4 -8.57,3.49 -8.51,5.64 -18.23,11.05 -21.66,12.56 -14.47,6.36 -44.13,12.01 -53.9,6.23 -37.45,-22.15 -22.89,-35.88 -39.91,-58.45 -4.84,-5.52 -9.29,-11.22 -16.66,-14.34 -26.6,-11.24 -67.46,-5.62 -99.96,25.75 -13.55,13.07 -21.97,30.77 -22.35,49.59 -1.34,65.82 85.14,127.47 200.78,187.74 22.66,11.61 53.12,22.28 80.51,30.69 44.01,13.51 91.05,13.51 135.06,0 27.4,-8.41 57.86,-19.08 80.51,-30.69 C 724.46,710.06 810.95,648.41 809.61,582.59 809.23,563.77 800.8,546.08 787.26,533 Z"
           style="fill:#ffffff"
           id="path175" />
        <path
           d="m 353.07,567.97 c -51.47,13.93 -74.75,7.39 -84.07,-9.3 16.95,16.7 41.27,18.66 70.91,9.99 -40.12,7.29 -59.82,0.96 -68.74,-12.56 11.18,9.77 27.17,14.97 50.54,13.15 -18.75,-0.09 -33.48,-5.13 -45.4,-13.65 10.05,3.98 20.27,6.45 30.66,7.62 -9.83,-2.15 -20.71,-7.55 -30.36,-16.02 -8.83,-7.75 -18.7,-16.38 -26.11,-28.09 -3.67,-5.8 -10.52,-8.79 -16.22,-11.87 -9.52,10.74 -10.31,22.79 1.98,36.79 13.92,18.38 30.85,31.03 50.44,38.58 2.46,0.95 5.06,1.49 7.69,1.63 26.17,1.36 50.67,-4.44 72.15,-23.07 -21.92,14.23 -43.45,20.54 -64.65,19.96 -5.58,-0.15 -11.07,-1.41 -16.18,-3.64 l -9.63,-4.2 c 23.38,10.88 49.29,7.73 76.98,-5.34 z"
           style="fill:#ffe6ba"
           id="path176" />
        <path
           d="m 568.52,567.97 c 51.47,13.93 74.75,7.39 84.07,-9.3 -16.95,16.7 -41.27,18.66 -70.91,9.99 40.12,7.29 59.82,0.96 68.74,-12.56 -11.18,9.77 -27.17,14.97 -50.54,13.15 18.75,-0.09 33.48,-5.13 45.4,-13.65 -10.05,3.98 -20.27,6.45 -30.66,7.62 9.83,-2.15 20.71,-7.55 30.36,-16.02 8.83,-7.75 18.7,-16.38 26.11,-28.09 3.67,-5.8 10.52,-8.79 16.22,-11.87 9.52,10.74 10.31,22.79 -1.98,36.79 -13.92,18.38 -30.85,31.03 -50.44,38.58 -2.46,0.95 -5.06,1.49 -7.69,1.63 -26.17,1.36 -50.67,-4.44 -72.15,-23.07 21.92,14.23 43.45,20.54 64.65,19.96 5.58,-0.15 11.07,-1.41 16.18,-3.64 l 9.63,-4.2 c -23.38,10.88 -49.29,7.73 -76.98,-5.34 z"
           style="fill:#ffe6ba"
           id="path177" />
      </g>
      <g
         id="ae">
        <path
           d="m 616.22,694.7 c -1.55,-4.82 -7.93,-5.97 -11.3,-2.19 C 498.78,775.98 496.06,701 496.06,701 H 425.9 c 0,0 -2.73,74.98 -108.86,-8.49 -3.37,-3.79 -9.74,-2.64 -11.3,2.19 -1.72,5.35 0.15,12.93 5.22,22.51 17.15,32.47 60.43,64.79 99.52,66.07 13.89,0.45 27.74,-2.49 39.99,-9.06 3.94,-2.11 7.47,-4.43 10.51,-7.01 3.04,2.58 6.58,4.9 10.51,7.01 12.25,6.57 26.1,9.51 39.99,9.06 39.09,-1.28 82.37,-33.6 99.52,-66.07 5.08,-9.57 6.95,-17.16 5.22,-22.51 z"
           style="opacity:0.8;fill:url(#ag)"
           id="path178" />
        <path
           d="m 597.97,709.86 c -1.65,-2.36 -3.58,-2.2 -6.01,2.18 -5.4,9.72 -8.12,16.53 -14.64,24.86 -4.35,5.56 -12.74,12.71 -18.83,16.27 -28.08,16.44 -57.58,19.27 -88.78,1.74 -1.86,-1.05 -3.02,-3.01 -3.02,-5.15 V 719.3 l -5.89,-3.82 -5.89,3.82 v 30.46 c 0,2.13 -1.16,4.1 -3.02,5.15 -31.21,17.54 -60.71,14.7 -88.78,-1.74 -6.09,-3.57 -14.48,-10.71 -18.83,-16.27 -6.51,-8.32 -9.24,-15.14 -14.64,-24.86 -2.43,-4.38 -4.37,-4.54 -6.01,-2.18 -1.46,2.09 -1.67,4.81 -0.77,7.2 9.92,26.45 28.29,47.43 64.6,56.82 3.73,0.97 7.56,1.56 11.42,1.75 21.71,1.08 42.31,0.49 55.4,-11.28 1.6,-1.44 3.71,-2.19 5.87,-2.19 h 1.33 c 2.16,0 4.26,0.75 5.87,2.19 13.09,11.76 33.68,12.36 55.4,11.28 3.85,-0.19 7.68,-0.78 11.42,-1.75 36.31,-9.39 54.69,-30.37 64.6,-56.82 0.9,-2.39 0.68,-5.11 -0.77,-7.2 z"
           style="fill:#1a0033"
           id="path179" />
      </g>
      <g
         id="ah">
        <path
           d="m 529.19,644 c -5.26,-22.96 -30.69,-31.75 -68.4,-31.91 -37.71,0.16 -63.14,8.95 -68.4,31.91 -1.95,9.54 -2.83,23.84 0.26,30.59 13.8,34.92 37.22,46.43 68.13,47.21 30.91,-0.78 54.33,-12.29 68.13,-47.21 3.09,-6.75 2.22,-21.05 0.26,-30.59 z"
           style="fill:#1a0033"
           id="path180" />
        <g
           id="ai">
          <path
             d="m 499.19,688.83 c -13.76,2.66 -26.73,3.14 -38.4,0 -11.67,3.14 -24.64,2.66 -38.4,0 -4.09,-0.38 -7.01,0.83 -6.92,6.13 12.85,13.98 27.96,21.89 45.32,23.74 17.36,-1.85 32.47,-9.76 45.32,-23.74 0.09,-5.31 -2.83,-6.51 -6.92,-6.13 z"
             style="fill:#260366"
             id="path181" />
        </g>
        <g
           id="aj">
          <path
             d="m 483.45,636.35 h -22.66 c 0,0 -22.66,0 -22.66,0 -5.39,0.91 -6.69,5.32 -6.44,11.08 h 58.2 c 0.26,-5.75 -1.05,-10.17 -6.44,-11.08 z"
             style="fill:#ffffff"
             id="path182" />
          <path
             d="m 483.64,617.36 c 14.82,1.26 24.01,7.69 29.91,17.14 -16.21,-3.61 -33.47,-5.37 -52.57,-3.82 -19.11,-1.54 -36.36,0.21 -52.57,3.82 5.9,-9.45 15.09,-15.88 29.91,-17.14 15.35,-1.95 30.48,-2.09 45.32,0 z"
             style="fill:#ffffff"
             id="path183" />
          <path
             d="m 408.22,671.14 c 3.04,-0.58 6.1,-0.73 9.17,-0.79 0,0 -0.53,0.18 -0.53,0.18 2.56,-1.99 5.72,-3.15 8.83,-3.91 1.57,-0.36 3.22,-0.58 4.9,-0.29 4.33,0.7 7.13,4.98 8.1,8.98 0.57,2.4 0.35,4.98 0.13,7.33 -0.13,1.58 -0.33,3.16 -0.59,4.74 -0.02,0.11 -0.18,0.11 -0.2,0 -0.57,-3.1 -0.64,-6.28 -0.99,-9.39 -0.71,-6.21 -5.26,-13.25 -12.32,-10.44 -2.53,1 -4.58,2.89 -6.8,4.41 l -0.27,0.18 h -0.27 c -3.07,-0.07 -6.13,-0.22 -9.17,-0.8 -0.1,-0.02 -0.11,-0.18 0,-0.2 v 0 z"
             style="fill:#ffffff"
             id="path184" />
          <path
             d="m 513.36,671.34 c -3.13,0.59 -6.28,0.74 -9.44,0.8 0,0 -0.27,-0.18 -0.27,-0.18 -2.22,-1.52 -4.27,-3.41 -6.8,-4.41 -7.05,-2.81 -11.6,4.24 -12.32,10.44 -0.35,3.11 -0.42,6.28 -0.99,9.39 -0.01,0.11 -0.19,0.11 -0.2,0 -0.26,-1.58 -0.46,-3.16 -0.59,-4.74 -0.22,-2.35 -0.43,-4.93 0.13,-7.33 0.97,-4 3.77,-8.28 8.1,-8.98 1.68,-0.29 3.33,-0.07 4.9,0.29 3.11,0.76 6.27,1.92 8.83,3.91 l -0.53,-0.18 c 3.07,0.06 6.13,0.22 9.17,0.79 0.1,0.02 0.11,0.18 0,0.2 v 0 z"
             style="fill:#ffffff"
             id="path185" />
          <path
             d="m 475.62,711.8 c -1.05,0.54 -2.87,1.56 -4.05,1.56 l -10.78,0.99 -10.78,-0.99 c -1.18,0 -3,-1.02 -4.05,-1.56 -4.41,-2.27 -4.3,-1.89 -1.67,1.81 1.15,1.61 2.9,2.71 4.86,3.04 4.08,0.7 8.02,1.2 11.65,1.25 3.62,-0.05 7.56,-0.55 11.65,-1.25 1.95,-0.33 3.71,-1.43 4.86,-3.04 2.63,-3.7 2.74,-4.08 -1.67,-1.81 z"
             style="fill:#ffffff"
             id="path186" />
        </g>
      </g>
      <g
         id="ak">
        <path
           id="al"
           d="m 301.54,392.13 c 4.14,-6.78 11.64,-16.11 23.54,-19.98 26.69,-8.68 58.43,15.71 64.48,40.75 0.96,3.96 4.16,17.2 -3.76,26.7 -4.81,5.78 -13.09,9.4 -20.57,8.11 -6.05,-1.05 -7.1,-4.54 -15.03,-10.48 -13.2,-9.88 -18.49,-6.33 -35.01,-17.6 -8.99,-6.13 -12.03,-10.33 -13.45,-14.84 -1.59,-5.04 -0.93,-9.7 -0.2,-12.66 z"
           style="fill:#ffffff" />
        <path
           id="am"
           d="m 620.04,392.13 c -4.14,-6.78 -11.64,-16.11 -23.54,-19.98 -26.69,-8.68 -58.43,15.71 -64.48,40.75 -0.96,3.96 -4.16,17.2 3.76,26.7 4.81,5.78 13.09,9.4 20.57,8.11 6.05,-1.05 7.1,-4.54 15.03,-10.48 13.2,-9.88 18.49,-6.33 35.01,-17.6 8.99,-6.13 12.03,-10.33 13.45,-14.84 1.59,-5.04 0.93,-9.7 0.2,-12.66 z"
           style="fill:#ffffff" />
        <g
           id="an">
          <path
             id="ao"
             d="m 376.94,536.13 c 1.05,7.45 -0.31,12.44 -5.78,13.25 -31.23,17.96 -62.18,17.99 -88.25,1.83 -4.3,-2.67 -8.1,-6.08 -11.21,-10.08 -16.8,-21.59 -31.51,-34.09 -48.89,-43.16 -2.3,-3.34 -1.73,-6.29 1.19,-8.92 l 10.98,-3.82 c 4.55,-1.58 8.62,-4.32 11.76,-7.97 57.73,-66.9 122.9,-43.08 129.47,51.2 0.18,2.56 0.37,5.13 0.73,7.67 z"
             style="fill:#15001c" />
          <path
             id="ap"
             d="m 544.64,536.13 c -1.05,7.45 0.31,12.44 5.78,13.25 31.23,17.96 62.18,17.99 88.25,1.83 4.3,-2.67 8.1,-6.08 11.21,-10.08 16.8,-21.59 31.51,-34.09 48.89,-43.16 2.3,-3.34 1.73,-6.29 -1.19,-8.92 l -10.98,-3.82 c -4.55,-1.58 -8.62,-4.32 -11.76,-7.97 -57.73,-66.9 -122.9,-43.08 -129.47,51.2 -0.18,2.56 -0.37,5.13 -0.73,7.67 z"
             style="fill:#15001c" />
          <g
             id="aq">
            <g
               id="ar">
              <path
                 d="m 280.18,471.45 c -4.45,0.67 -6.81,13.49 -6.53,23.34 0.16,5.57 0.99,34.35 25.32,46.29 16.27,7.98 36.36,5.14 49.25,-6.13 6.34,-5.54 13.99,-13.85 11.87,-17.6 -2.36,-4.17 -13.44,3 -28.88,0 -18.29,-3.56 -30.86,-19.1 -35.41,-24.73 -9.84,-12.17 -11.67,-21.76 -15.63,-21.16 z"
                 style="fill:url(#linearGradient247)"
                 id="path187" />
              <path
                 d="m 352.07,545.57 c -1.45,1.65 -3.19,3.03 -5.11,4.1 -18.4,10.2 -37.31,8.52 -57.69,-6.02 -18.49,-12.7 -26.76,-26.61 -24.68,-49.15 0.66,-7.11 3.73,-13.83 8.85,-18.8 1.94,-1.89 3.9,-3.47 5.81,-4.27 -3.61,25.3 0.26,46.92 14.85,60.08 11.18,10.09 27.19,13.28 41.42,8.33 10.64,-3.7 16.96,-11 22.55,-20.15 0.59,-0.96 1.54,-1.71 2.66,-1.86 1.62,-0.23 2.38,0.82 2.79,3.06 0.15,0.83 0.21,1.67 0.19,2.51 -2.14,8.52 -6.07,15.88 -11.62,22.17 z"
                 style="fill:url(#linearGradient248)"
                 id="path188" />
              <path
                 d="m 641.41,471.45 c 4.45,0.67 6.81,13.49 6.53,23.34 -0.16,5.57 -0.99,34.35 -25.32,46.29 -16.27,7.98 -36.36,5.14 -49.25,-6.13 -6.34,-5.54 -13.99,-13.85 -11.87,-17.6 2.36,-4.17 13.44,3 28.88,0 18.29,-3.56 30.86,-19.1 35.41,-24.73 9.84,-12.17 11.67,-21.76 15.63,-21.16 z"
                 style="fill:url(#au)"
                 id="path189" />
              <path
                 d="m 569.51,545.57 c 1.45,1.65 3.19,3.03 5.11,4.1 18.4,10.2 37.31,8.52 57.69,-6.02 18.49,-12.7 26.76,-26.61 24.68,-49.15 -0.66,-7.11 -3.73,-13.83 -8.85,-18.8 -1.94,-1.89 -3.9,-3.47 -5.81,-4.27 3.61,25.3 -0.26,46.92 -14.85,60.08 -11.18,10.09 -27.19,13.28 -41.42,8.33 -10.64,-3.7 -16.96,-11 -22.55,-20.15 -0.59,-0.96 -1.54,-1.71 -2.66,-1.86 -1.62,-0.23 -2.38,0.82 -2.79,3.06 -0.15,0.83 -0.21,1.67 -0.19,2.51 2.14,8.52 6.07,15.88 11.62,22.17 z"
                 style="fill:url(#av)"
                 id="path190" />
            </g>
            <g
               id="aw">
              <path
                 d="m 290.66,470.85 c 5.85,-1.86 12.67,6.62 14.04,5.34 0.86,-0.8 -1.87,-4.04 -3.16,-5.24 -4.22,-3.92 -4.47,-5.48 -4.75,-7.48 -0.53,-3.76 5.77,-8.83 10.88,-10.42 7.27,-2.26 17.2,1.02 19.98,8.31 2.42,6.34 -1.74,12.66 -3.56,15.43 -0.81,1.23 -6.43,9.46 -16.81,10.68 -1.5,0.18 -7.55,0.73 -13.45,-2.77 -1.36,-0.81 -8.07,-4.79 -7.32,-9.3 0.33,-1.98 2.07,-3.88 4.15,-4.55 z"
                 style="fill:#ffffff"
                 id="path191" />
              <path
                 d="m 630.92,470.85 c -5.85,-1.86 -12.67,6.62 -14.04,5.34 -0.86,-0.8 1.87,-4.04 3.16,-5.24 4.22,-3.92 4.47,-5.48 4.75,-7.48 0.53,-3.76 -5.77,-8.83 -10.88,-10.42 -7.27,-2.26 -17.2,1.02 -19.98,8.31 -2.42,6.34 1.74,12.66 3.56,15.43 0.81,1.23 6.43,9.46 16.81,10.68 1.5,0.18 7.55,0.73 13.45,-2.77 1.36,-0.81 8.07,-4.79 7.32,-9.3 -0.33,-1.98 -2.07,-3.88 -4.15,-4.55 z"
                 style="fill:#ffffff"
                 id="path192" />
            </g>
            <g
               id="ax">
              <path
                 d="m 295.18,518.74 c 2.08,-4.16 6.24,-7.42 10.33,-8.44 12.87,-3.21 26.94,15.28 30.57,12.19 1.62,-1.38 -0.25,-5.89 1.15,-6.42 1.02,-0.39 3.01,1.62 4.02,3.69 2.33,4.76 0.45,11.82 -3.87,15.93 -3.8,3.61 -8.46,3.94 -13.39,4.28 -10.59,0.74 -18.08,-3.53 -22.42,-6.01 -6.2,-3.54 -7.27,-6.06 -7.64,-7.41 -0.94,-3.44 0.64,-6.59 1.25,-7.82 z"
                 style="opacity:0.75;fill:url(#linearGradient249)"
                 id="path193" />
              <path
                 d="m 626.4,518.74 c -2.08,-4.16 -6.24,-7.42 -10.33,-8.44 -12.87,-3.21 -26.94,15.28 -30.57,12.19 -1.62,-1.38 0.25,-5.89 -1.15,-6.42 -1.02,-0.39 -3.01,1.62 -4.02,3.69 -2.33,4.76 -0.45,11.82 3.87,15.93 3.8,3.61 8.46,3.94 13.39,4.28 10.59,0.74 18.08,-3.53 22.42,-6.01 6.2,-3.54 7.27,-6.06 7.64,-7.41 0.94,-3.44 -0.64,-6.59 -1.25,-7.82 z"
                 style="opacity:0.75;fill:url(#az)"
                 id="path194" />
            </g>
          </g>
        </g>
      </g>
    </g>
    <g
       id="ba">
      <path
         d="m 280.62,233.81 c -44.11,26.73 -123.7,80.95 -139.3,193.65 -1.07,7.75 -3.12,15.34 -6.18,22.53 -6.7,15.74 -12.99,22.74 -24.78,41.94 -15.97,26.02 -25.91,49.21 -31.19,69.52 -5.37,20.63 -5.57,38.2 -2.84,59.34 11.44,127.04 192.14,238.05 381.47,254.51 h 2.99 c 0,0 2.99,0 2.99,0 189.34,-16.46 370.04,-127.47 381.47,-254.51 2.72,-21.14 2.52,-38.71 -2.84,-59.34 -5.28,-20.31 -15.22,-43.5 -31.19,-69.52 -11.79,-19.2 -18.07,-26.2 -24.78,-41.94 -3.07,-7.2 -5.11,-14.79 -6.18,-22.53 C 764.66,314.76 686.11,261.58 642,234.85"
         style="fill:none;stroke:#000000;stroke-width:4px;stroke-miterlimit:10"
         id="path195" />
      <g
         id="bb">
        <polygon
           points="415.41,255.07 374.63,218.51 342.98,213.76 323.46,194.77 305.53,194.77 277.57,228 283.9,242.24 306.06,257.01 308.69,269.67 376.91,304.13 "
           style="fill:url(#bc)"
           id="polygon195" />
        <polygon
           points="506.17,255.07 546.95,218.51 578.6,213.76 598.12,194.77 616.05,194.77 644.01,228 637.68,242.24 615.53,257.01 612.89,269.67 544.67,304.13 "
           style="fill:url(#bd)"
           id="polygon196" />
        <g
           id="be">
          <path
             d="m 388.06,265.74 -33.82,-28.03 -18.73,23.69 c -1.55,2.03 -3.63,3.26 -5.43,1.46 l -2.01,-1.41 c -1.56,-1.56 -1.65,-4.05 -0.22,-5.72 l 21.57,-25.63 5.26,0.64 35.47,31.85 z"
             style="fill:#b7f9ff"
             id="path196" />
          <rect
             x="356.89001"
             y="246.72"
             width="17.23"
             height="35.580002"
             rx="4.3099999"
             ry="4.3099999"
             transform="rotate(-51.21,365.49131,264.49867)"
             style="fill:#b7f9ff"
             id="rect196" />
          <rect
             x="355.04999"
             y="258.14001"
             width="2.54"
             height="35.580002"
             rx="1.27"
             ry="1.27"
             transform="rotate(-51.21,356.30604,275.92857)"
             style="fill:#b7f9ff"
             id="rect197" />
          <rect
             x="297.89999"
             y="210.35001"
             width="31.6"
             height="31.6"
             rx="4.3099999"
             ry="4.3099999"
             transform="rotate(-51.21,313.69024,226.1518)"
             style="fill:url(#radialGradient249)"
             id="rect198" />
          <rect
             x="303.31"
             y="215.75999"
             width="20.790001"
             height="20.790001"
             rx="4.3099999"
             ry="4.3099999"
             transform="rotate(-51.21,313.69024,226.1518)"
             style="fill:#b7f9ff"
             id="rect199" />
          <polygon
             points="313.7,268.62 313.7,258.07 286.8,235.92 282.58,240.4 305.27,258.86 307.11,268.62 "
             style="fill:#ffffff"
             id="polygon199" />
          <polygon
             points="343.51,212.71 323.46,194.77 320.63,194.94 320.23,197.61 339.48,216.6 344.32,217.91 "
             style="fill:#ffffff"
             id="polygon200" />
          <rect
             x="352.29001"
             y="261.57999"
             width="2.54"
             height="35.580002"
             rx="1.27"
             ry="1.27"
             transform="rotate(-51.21,353.54333,279.36439)"
             style="fill:#b7f9ff"
             id="rect200" />
          <path
             d="m 533.52,265.74 33.82,-28.03 18.73,23.69 c 1.55,2.03 3.63,3.26 5.43,1.46 l 2.01,-1.41 c 1.56,-1.56 1.65,-4.05 0.22,-5.72 l -21.57,-25.63 -5.26,0.64 -35.47,31.85 z"
             style="fill:#b7f9ff"
             id="path200" />
          <rect
             x="547.46002"
             y="246.72"
             width="17.23"
             height="35.580002"
             rx="4.3099999"
             ry="4.3099999"
             transform="rotate(-128.79,556.08481,264.50028)"
             style="fill:#b7f9ff"
             id="rect201" />
          <rect
             x="563.98999"
             y="258.14001"
             width="2.54"
             height="35.580002"
             rx="1.27"
             ry="1.27"
             transform="rotate(-128.79,565.26507,275.92041)"
             style="fill:#b7f9ff"
             id="rect202" />
          <rect
             x="592.08002"
             y="210.35001"
             width="31.6"
             height="31.6"
             rx="4.3099999"
             ry="4.3099999"
             transform="rotate(-128.79,607.89092,226.141)"
             style="fill:url(#bg)"
             id="rect203" />
          <rect
             x="597.48999"
             y="215.75999"
             width="20.790001"
             height="20.790001"
             rx="4.3099999"
             ry="4.3099999"
             transform="rotate(-128.79,607.89092,226.141)"
             style="fill:#b7f9ff"
             id="rect204" />
          <polygon
             points="607.88,268.62 607.88,258.07 634.78,235.92 639,240.4 616.32,258.86 614.47,268.62 "
             style="fill:#ffffff"
             id="polygon204" />
          <polygon
             points="578.07,212.71 598.12,194.77 600.95,194.94 601.35,197.61 582.1,216.6 577.26,217.91 "
             style="fill:#ffffff"
             id="polygon205" />
          <rect
             x="566.76001"
             y="261.57999"
             width="2.54"
             height="35.580002"
             rx="1.27"
             ry="1.27"
             transform="rotate(-128.79,568.03447,279.36431)"
             style="fill:#b7f9ff"
             id="rect205" />
        </g>
      </g>
      <g
         id="bh">
        <path
           d="m 213.75,306.68 c -6.68,0 -17.27,2.33 -21.69,6.83 -9.91,10.1 -18.74,23.18 -23.28,39.72 h 89.94 c 0,-25.71 -20.13,-46.55 -44.97,-46.55 z"
           id="path205" />
        <path
           d="m 707.83,306.68 c 6.68,0 17.27,2.33 21.69,6.83 9.91,10.1 18.74,23.18 23.28,39.72 h -89.94 c 0,-25.71 20.13,-46.55 44.97,-46.55 z"
           id="path206" />
        <polygon
           points="216.84,319.27 389.86,301.4 383.12,319.27 216.84,334.7 "
           style="fill-rule:evenodd"
           id="polygon206" />
        <polygon
           points="704.74,319.27 531.73,301.4 538.47,319.27 704.74,334.7 "
           style="fill-rule:evenodd"
           id="polygon207" />
        <path
           d="m 381.67,367.34 -12.51,-57.5 -123.18,15.79 c -7.94,-8.81 -19.44,-14.34 -32.23,-14.34 -23.96,0 -43.39,19.43 -43.39,43.39 0,23.96 19.43,43.39 43.39,43.39 18.29,0 33.92,-11.32 40.31,-27.32 z"
           style="fill:#ffffff;fill-rule:evenodd"
           id="path207" />
        <path
           d="m 539.91,367.34 12.51,-57.5 123.18,15.79 c 7.94,-8.81 19.44,-14.34 32.23,-14.34 23.96,0 43.39,19.43 43.39,43.39 0,23.96 -19.43,43.39 -43.39,43.39 -18.29,0 -33.92,-11.32 -40.31,-27.32 z"
           style="fill:#ffffff;fill-rule:evenodd"
           id="path208" />
        <g
           id="bi">
          <g
             id="bj">
            <rect
               x="250.38"
               y="368.20001"
               width="47"
               height="3.3599999"
               transform="rotate(-1.45,274.31129,370.59854)"
               style="fill:#ffffff"
               id="rect208" />
            <polygon
               points="215.34,371.56 390.83,368.2 384,350.32 215.34,356.13 "
               style="fill:url(#linearGradient250);fill-rule:evenodd"
               id="polygon208" />
            <polygon
               points="706.25,371.56 530.75,368.2 537.58,350.32 706.25,356.13 "
               style="fill:url(#bl);fill-rule:evenodd"
               id="polygon209" />
          </g>
          <g
             id="bm">
            <path
               d="m 366.73,351.03 -120.01,9.9 -6.24,-30.99 125.62,-15.26 c -1.13,7.21 -2.18,19.92 0.63,36.35 z"
               style="fill:url(#linearGradient251);fill-rule:evenodd"
               id="path209" />
            <path
               d="m 554.85,351.03 120.01,9.9 6.24,-30.99 -125.62,-15.26 c 1.13,7.21 2.18,19.92 -0.63,36.35 z"
               style="fill:url(#bo);fill-rule:evenodd"
               id="path210" />
            <g
               id="bp">
              <polygon
                 points="340.41,327.15 368.31,327.15 368.31,347.51 342.02,347.51 "
                 id="polygon210" />
              <rect
                 x="340.39001"
                 y="316.12"
                 width="27.9"
                 height="17.360001"
                 transform="rotate(-6.96,354.25226,324.73727)"
                 style="fill:#00007b"
                 id="rect210" />
              <rect
                 x="553.28998"
                 y="316.12"
                 width="27.9"
                 height="17.360001"
                 transform="rotate(-173.04,567.24366,324.79343)"
                 style="fill:#00007b"
                 id="rect211" />
              <line
                 x1="368.20999"
                 y1="328.89999"
                 x2="340.94"
                 y2="332.22"
                 style="fill:none;stroke:#ffffff;stroke-width:6px;stroke-miterlimit:10"
                 id="line211" />
              <line
                 x1="368.22"
                 y1="346.12"
                 x2="342.12"
                 y2="349.29999"
                 style="fill:none;stroke:#ffffff;stroke-width:6px;stroke-miterlimit:10"
                 id="line212" />
              <polygon
                 points="581.17,327.15 553.27,327.15 553.27,347.51 579.56,347.51 "
                 id="polygon212" />
              <line
                 x1="553.37"
                 y1="328.89999"
                 x2="580.65002"
                 y2="332.22"
                 style="fill:none;stroke:#ffffff;stroke-width:6px;stroke-miterlimit:10"
                 id="line213" />
              <line
                 x1="553.35999"
                 y1="346.12"
                 x2="579.46002"
                 y2="349.29999"
                 style="fill:none;stroke:#ffffff;stroke-width:6px;stroke-miterlimit:10"
                 id="line214" />
              <line
                 x1="233.61"
                 y1="331.63"
                 x2="288.23001"
                 y2="330.23999"
                 style="fill:#ffffff;stroke:#000000;stroke-width:6px;stroke-miterlimit:10"
                 id="line215" />
            </g>
            <circle
               cx="213.75"
               cy="354.67999"
               r="40.09"
               style="fill:#0b2f72"
               id="circle215" />
            <circle
               cx="707.83002"
               cy="354.67999"
               r="40.09"
               style="fill:#0b2f72"
               id="circle216" />
            <circle
               cx="213.75"
               cy="354.67999"
               r="29.01"
               style="fill:#ffffff"
               id="circle217" />
            <circle
               cx="707.83002"
               cy="354.67999"
               r="29.01"
               style="fill:#ffffff"
               id="circle218" />
            <circle
               cx="213.75"
               cy="354.67999"
               r="16.879999"
               style="fill:#369acb"
               id="circle219" />
            <circle
               cx="707.83002"
               cy="354.67999"
               r="16.879999"
               style="fill:#369acb"
               id="circle220" />
            <path
               d="m 205.92,338.31 c 4.28,9.77 5.14,15.75 10.92,15.65 -4.25,-4.92 -3.28,-10.47 -4,-17.23 l -6.92,1.59 z"
               style="fill:#ffffff;fill-rule:evenodd"
               id="path220" />
            <path
               d="m 715.66,338.31 c -4.28,9.77 -5.14,15.75 -10.92,15.65 4.25,-4.92 3.28,-10.47 4,-17.23 l 6.92,1.59 z"
               style="fill:#ffffff;fill-rule:evenodd"
               id="path221" />
            <polygon
               points="285.81,316.64 293.48,315.71 298.47,356.67 290.77,357.34 "
               style="fill-rule:evenodd"
               id="polygon221" />
            <polygon
               points="635.78,316.64 628.1,315.71 623.11,356.67 630.81,357.34 "
               style="fill-rule:evenodd"
               id="polygon222" />
          </g>
        </g>
        <circle
           cx="460.79001"
           cy="331.20001"
           r="94.07"
           style="fill:#81f7fe;stroke:#001270;stroke-width:4px;stroke-miterlimit:10"
           id="circle222" />
        <circle
           cx="460.79001"
           cy="331.20001"
           r="58.73"
           style="fill:url(#bq)"
           id="circle223" />
        <circle
           cx="460.79001"
           cy="331.20001"
           r="76.790001"
           style="fill:#99fafe"
           id="circle224" />
        <circle
           cx="460.79001"
           cy="331.20001"
           r="55.080002"
           style="fill:#ffffff"
           id="circle225" />
        <circle
           cx="460.79001"
           cy="331.20001"
           r="53.919998"
           style="fill:none;stroke:#0074f6;stroke-width:5px;stroke-miterlimit:10"
           id="circle226" />
        <circle
           cx="460.79001"
           cy="331.20001"
           r="73.099998"
           style="fill:none;stroke:#005cd1;stroke-width:4px;stroke-miterlimit:10"
           id="circle227" />
        <circle
           cx="460.79001"
           cy="331.20001"
           r="79.120003"
           style="fill:none;stroke:#0d43b0;stroke-width:8px;stroke-miterlimit:10"
           id="circle228" />
        <circle
           cx="460.79001"
           cy="331.20001"
           r="33.540001"
           style="fill:#16ffff"
           id="circle229" />
        <polygon
           points="450.56,252.24 457.76,252.08 457.76,237.14 443.36,237.66 "
           style="fill:url(#linearGradient252)"
           id="polygon229" />
        <polygon
           points="471.02,252.24 463.82,252.08 463.82,237.14 478.22,237.66 "
           style="fill:url(#bs)"
           id="polygon230" />
        <circle
           cx="460.79001"
           cy="331.20001"
           r="25.49"
           style="fill:none;stroke:#ffffff;stroke-width:5px;stroke-miterlimit:10"
           id="circle230" />
        <polygon
           points="290.77,357.34 267.41,359.14 265.34,342.17 288.58,339.34 "
           style="fill:url(#linearGradient253);fill-rule:evenodd"
           id="polygon231" />
        <polygon
           points="630.81,357.34 654.17,359.14 656.24,342.17 633.01,339.34 "
           style="fill:url(#bu);fill-rule:evenodd"
           id="polygon232" />
      </g>
      <g
         id="bv">
        <polygon
           points="479.43,529.8 481.8,416.3 461.76,416.3 441.71,416.3 444.09,529.8 461.76,529.8 "
           style="fill:#81f7fe;fill-rule:evenodd"
           id="polygon233" />
        <polygon
           points="476.25,529.8 479.43,408 461.76,408 444.09,408 447.27,529.8 461.76,529.8 "
           style="fill:url(#bw);fill-rule:evenodd"
           id="polygon234" />
      </g>
      <g
         id="bx">
        <g
           id="g237">
          <g
             id="g235">
            <path
               d="m 445.47,588.26 -8.68,-5.99 v -48.46 c 0,-3.04 2.48,-5.52 5.52,-5.52 h 36.97 c 3.04,0 5.52,2.48 5.52,5.52 v 48.46 l -8.68,5.99 z"
               style="fill:#1d2572;fill-rule:evenodd"
               id="path234" />
            <path
               d="m 479.27,529.8 c 2.22,0 4.02,1.8 4.02,4.02 v 47.67 l -7.65,5.27 h -29.71 l -7.65,-5.27 v -47.67 c 0,-2.22 1.8,-4.02 4.02,-4.02 h 36.97 m 0,-3 H 442.3 c -3.87,0 -7.02,3.15 -7.02,7.02 v 49.25 l 1.3,0.89 7.65,5.27 0.77,0.53 h 31.58 l 0.77,-0.53 7.65,-5.27 1.3,-0.89 v -49.25 c 0,-3.87 -3.15,-7.02 -7.02,-7.02 v 0 z"
               style="fill:#ffffff"
               id="path235" />
          </g>
          <g
             id="g236">
            <rect
               x="451.98999"
               y="553.52002"
               width="17.6"
               height="20.459999"
               style="fill:#1d2572"
               id="rect235" />
            <path
               d="m 464.59,558.52 v 10.46 h -7.6 v -10.46 h 7.6 m 10,-10 h -27.6 v 27.69 l 2.77,2.77 h 22.07 l 2.77,-2.77 v -27.69 0 z"
               style="fill:#ffffff"
               id="path236" />
          </g>
          <polygon
             points="474.59,543.38 474.59,540.48 460.79,540.48 446.99,540.48 446.99,543.38 460.79,543.38 "
             style="fill:#ffffff;fill-rule:evenodd"
             id="polygon236" />
        </g>
      </g>
      <polygon
         points="468.66,425.16 468.66,409.17 460.79,409.17 452.92,409.17 452.92,425.16 460.79,425.16 "
         style="fill:#ffffff"
         id="polygon237" />
      <g
         id="by">
        <polygon
           points="298.47,356.67 331.55,353.95 326.02,319.67 294.42,323.4 "
           style="fill:#4a3a98;fill-rule:evenodd"
           id="polygon238" />
        <polygon
           points="623.11,356.67 590.03,353.95 595.57,319.67 627.16,323.4 "
           style="fill:#4a3a98;fill-rule:evenodd"
           id="polygon239" />
      </g>
      <g
         id="bz">
        <g
           id="g241">
          <path
             d="m 329.29,319.16 c 1.22,14.47 2.87,27.42 5.98,34.46 l 7.96,-0.65 c -2.32,-5.12 -4.91,-20.73 -7.1,-34.65 z"
             style="fill:#07adf7"
             id="path239" />
          <path
             d="m 324.2,319.89 5.11,-0.62 c 0.52,12.09 2.42,23.57 5.96,34.35 l -5.14,0.45 c -2.3,-9.79 -4.19,-21.37 -5.93,-34.18 z"
             id="path240" />
          <path
             d="m 336.13,318.32 5.11,-0.67 c 0.52,12.09 2.9,24.17 6.44,34.95 l -4.44,0.37 c -2.5,-5.82 -6.26,-19.64 -7.1,-34.65 z"
             id="path241" />
        </g>
        <g
           id="g244">
          <path
             d="m 592.29,319.16 c -1.22,14.47 -2.87,27.42 -5.98,34.46 l -7.96,-0.65 c 2.32,-5.12 4.91,-20.73 7.1,-34.65 z"
             style="fill:#07adf7"
             id="path242" />
          <path
             d="m 597.39,319.89 -5.11,-0.62 c -0.52,12.09 -2.42,23.57 -5.96,34.35 l 5.14,0.45 c 2.3,-9.79 4.19,-21.37 5.93,-34.18 z"
             id="path243" />
          <path
             d="m 585.45,318.32 -5.11,-0.67 c -0.52,12.09 -2.9,24.17 -6.44,34.95 l 4.44,0.37 c 2.5,-5.82 6.26,-19.64 7.1,-34.65 z"
             id="path244" />
        </g>
      </g>
      <polygon
         points="467.69,494.46 468.66,443.66 460.79,443.66 452.92,443.66 453.89,494.46 460.79,494.46 "
         style="fill:#ffffff"
         id="polygon244" />
      <polygon
         points="466.93,519.91 467.79,516.66 460.79,516.66 453.8,516.66 454.66,519.91 460.79,519.91 "
         style="fill:#ffffff"
         id="polygon245" />
    </g>
    <g
       id="ca">
      <path
         d="m 138.77,349.7 c -12.56,30.76 -29.12,95.08 -25.41,146.04 l 13.71,-12.43 c -7.53,-28.61 -12.19,-51.1 17.59,-124.22 l -5.89,-9.4 z"
         style="fill:#ffffdc"
         id="path245" />
      <path
         d="m 782.81,349.7 c 12.56,30.76 29.12,95.08 25.41,146.04 l -13.71,-12.43 c 7.53,-28.61 12.19,-51.1 -17.59,-124.22 l 5.89,-9.4 z"
         style="fill:#ffffdc"
         id="path246" />
    </g>
  </g>
</svg>
