<?xml version="1.0" encoding="UTF-8" standalone="no"?>
<svg
   width="924.75"
   height="992.46002"
   viewBox="0 0 924.75 992.46"
   version="1.1"
   id="svg706"
   sodipodi:docname="ai.svg"
   xmlns:inkscape="http://www.inkscape.org/namespaces/inkscape"
   xmlns:sodipodi="http://sodipodi.sourceforge.net/DTD/sodipodi-0.dtd"
   xmlns:xlink="http://www.w3.org/1999/xlink"
   xmlns="http://www.w3.org/2000/svg"
   xmlns:svg="http://www.w3.org/2000/svg">
  <sodipodi:namedview
     id="namedview708"
     pagecolor="#ffffff"
     bordercolor="#000000"
     borderopacity="0.25"
     inkscape:showpageshadow="2"
     inkscape:pageopacity="0.0"
     inkscape:pagecheckerboard="0"
     inkscape:deskcolor="#d1d1d1"
     showgrid="false" />
  <defs
     id="defs181">
    <linearGradient
       id="bc"
       x1="299.98999"
       y1="200.31"
       x2="390.35999"
       y2="290.67999"
       gradientUnits="userSpaceOnUse">
      <stop
         offset=".35"
         stop-color="#170222"
         id="stop83" />
      <stop
         offset="1"
         stop-color="#3d1d7b"
         id="stop85" />
    </linearGradient>
    <linearGradient
       id="bd"
       x1="299.98999"
       y1="200.31"
       x2="390.35999"
       y2="290.67999"
       gradientTransform="matrix(-1,0,0,1,921.58,0)"
       gradientUnits="userSpaceOnUse">
      <stop
         offset=".35"
         stop-color="#170222"
         id="stop88" />
      <stop
         offset="1"
         stop-color="#3d1d7b"
         id="stop90" />
    </linearGradient>
    <radialGradient
       id="bf"
       cx="313.70001"
       cy="226.14999"
       fx="313.70001"
       fy="226.14999"
       r="20.459999"
       gradientTransform="rotate(51.21,313.69723,226.1397)"
       gradientUnits="userSpaceOnUse">
      <stop
         offset="0"
         stop-color="#0b3e7d"
         id="stop93" />
      <stop
         offset="1"
         stop-color="#011561"
         id="stop95" />
    </radialGradient>
    <radialGradient
       id="bg"
       cx="313.70001"
       cy="226.14999"
       fx="313.70001"
       fy="226.14999"
       r="20.459999"
       gradientTransform="matrix(0.62646778,-0.77944732,-0.77944732,-0.62646778,587.62,612.34)"
       xlink:href="#bf" />
    <linearGradient
       id="bk"
       x1="215.34"
       y1="360.94"
       x2="390.82999"
       y2="360.94"
       gradientUnits="userSpaceOnUse">
      <stop
         offset=".31"
         stop-color="#000"
         id="stop99" />
      <stop
         offset=".42"
         stop-color="#000103"
         id="stop101" />
      <stop
         offset=".5"
         stop-color="#00040c"
         id="stop103" />
      <stop
         offset=".57"
         stop-color="#020b1c"
         id="stop105" />
      <stop
         offset=".64"
         stop-color="#031333"
         id="stop107" />
      <stop
         offset=".71"
         stop-color="#061f51"
         id="stop109" />
      <stop
         offset=".77"
         stop-color="#082c76"
         id="stop111" />
      <stop
         offset=".83"
         stop-color="#0b3da0"
         id="stop113" />
      <stop
         offset=".85"
         stop-color="#0d43b0"
         id="stop115" />
      <stop
         offset="1"
         stop-color="#0d43b0"
         id="stop117" />
    </linearGradient>
    <linearGradient
       id="bl"
       x1="215.34"
       y1="360.94"
       x2="390.82999"
       y2="360.94"
       gradientTransform="matrix(-1,0,0,1,921.58,0)"
       xlink:href="#bk" />
    <linearGradient
       id="bn"
       x1="306.26001"
       y1="356.32001"
       x2="303.10001"
       y2="320.20001"
       gradientUnits="userSpaceOnUse">
      <stop
         offset="0"
         stop-color="#0d43b0"
         id="stop121" />
      <stop
         offset=".15"
         stop-color="#0d43b0"
         id="stop123" />
      <stop
         offset=".17"
         stop-color="#0b3da0"
         id="stop125" />
      <stop
         offset=".23"
         stop-color="#082c76"
         id="stop127" />
      <stop
         offset=".29"
         stop-color="#061f51"
         id="stop129" />
      <stop
         offset=".36"
         stop-color="#031333"
         id="stop131" />
      <stop
         offset=".43"
         stop-color="#020b1c"
         id="stop133" />
      <stop
         offset=".5"
         stop-color="#00040c"
         id="stop135" />
      <stop
         offset=".58"
         stop-color="#000103"
         id="stop137" />
      <stop
         offset=".69"
         stop-color="#000"
         id="stop139" />
    </linearGradient>
    <linearGradient
       id="bo"
       x1="306.26001"
       y1="356.32001"
       x2="303.10001"
       y2="320.20001"
       gradientTransform="matrix(-1,0,0,1,921.58,0)"
       xlink:href="#bn" />
    <radialGradient
       id="bq"
       cx="460.79001"
       cy="331.20001"
       fx="460.79001"
       fy="331.20001"
       r="58.73"
       gradientUnits="userSpaceOnUse">
      <stop
         offset="0"
         stop-color="#381679"
         id="stop143" />
      <stop
         offset="1"
         stop-color="#290851"
         id="stop145" />
    </radialGradient>
    <linearGradient
       id="br"
       x1="450.56"
       y1="252.24001"
       x2="450.56"
       y2="237.14"
       gradientUnits="userSpaceOnUse">
      <stop
         offset="0"
         stop-color="#0d43b0"
         id="stop148" />
      <stop
         offset=".15"
         stop-color="#0d43b0"
         id="stop150" />
      <stop
         offset=".36"
         stop-color="#09349c"
         id="stop152" />
      <stop
         offset=".77"
         stop-color="#021b7c"
         id="stop154" />
      <stop
         offset="1"
         stop-color="#001270"
         id="stop156" />
    </linearGradient>
    <linearGradient
       id="bs"
       x1="450.56"
       y1="252.24001"
       x2="450.56"
       y2="237.14"
       gradientTransform="matrix(-1,0,0,1,921.58,0)"
       xlink:href="#br" />
    <linearGradient
       id="bt"
       x1="278.81"
       y1="358.39001"
       x2="277.23001"
       y2="340.32999"
       gradientUnits="userSpaceOnUse">
      <stop
         offset=".12"
         stop-color="#0d43b0"
         id="stop160" />
      <stop
         offset=".18"
         stop-color="#1d4fb5"
         id="stop162" />
      <stop
         offset=".3"
         stop-color="#4971c3"
         id="stop164" />
      <stop
         offset=".47"
         stop-color="#8fa8da"
         id="stop166" />
      <stop
         offset=".68"
         stop-color="#eff2f9"
         id="stop168" />
      <stop
         offset=".72"
         stop-color="#fff"
         id="stop170" />
    </linearGradient>
    <linearGradient
       id="bu"
       x1="278.81"
       y1="358.39001"
       x2="277.23001"
       y2="340.32999"
       gradientTransform="matrix(-1,0,0,1,921.58,0)"
       xlink:href="#bt" />
    <linearGradient
       id="bw"
       x1="461.76001"
       y1="529.79999"
       x2="461.76001"
       y2="408"
       gradientUnits="userSpaceOnUse">
      <stop
         offset="0"
         stop-color="#181b7d"
         id="stop174" />
      <stop
         offset=".69"
         stop-color="#270d4a"
         id="stop176" />
      <stop
         offset="1"
         stop-color="#0d43b0"
         id="stop178" />
    </linearGradient>
    <radialGradient
       inkscape:collect="always"
       xlink:href="#bf"
       id="radialGradient876"
       gradientUnits="userSpaceOnUse"
       gradientTransform="rotate(51.21,313.69723,226.1397)"
       cx="313.70001"
       cy="226.14999"
       fx="313.70001"
       fy="226.14999"
       r="20.459999" />
    <linearGradient
       inkscape:collect="always"
       xlink:href="#bk"
       id="linearGradient878"
       gradientUnits="userSpaceOnUse"
       x1="215.34"
       y1="360.94"
       x2="390.82999"
       y2="360.94" />
    <linearGradient
       inkscape:collect="always"
       xlink:href="#bn"
       id="linearGradient880"
       gradientUnits="userSpaceOnUse"
       x1="306.26001"
       y1="356.32001"
       x2="303.10001"
       y2="320.20001" />
    <linearGradient
       inkscape:collect="always"
       xlink:href="#br"
       id="linearGradient882"
       gradientUnits="userSpaceOnUse"
       x1="450.56"
       y1="252.24001"
       x2="450.56"
       y2="237.14" />
    <linearGradient
       inkscape:collect="always"
       xlink:href="#bt"
       id="linearGradient884"
       gradientUnits="userSpaceOnUse"
       x1="278.81"
       y1="358.39001"
       x2="277.23001"
       y2="340.32999" />
  </defs>
  <g
     id="g"
     transform="translate(-70.556004,-64.420688)">
    <g
       id="ba">
      <g
         id="bb"
         transform="translate(93.206536,219.96742)">
        <polygon
           points="376.91,304.13 415.41,255.07 374.63,218.51 342.98,213.76 323.46,194.77 305.53,194.77 277.57,228 283.9,242.24 306.06,257.01 308.69,269.67 "
           style="fill:url(#bc)"
           id="polygon520" />
        <polygon
           points="544.67,304.13 506.17,255.07 546.95,218.51 578.6,213.76 598.12,194.77 616.05,194.77 644.01,228 637.68,242.24 615.53,257.01 612.89,269.67 "
           style="fill:url(#bd)"
           id="polygon522" />
        <g
           id="be">
          <path
             d="m 388.06,265.74 -33.82,-28.03 -18.73,23.69 c -1.55,2.03 -3.63,3.26 -5.43,1.46 l -2.01,-1.41 c -1.56,-1.56 -1.65,-4.05 -0.22,-5.72 l 21.57,-25.63 5.26,0.64 35.47,31.85 z"
             style="fill:#b7f9ff"
             id="path524" />
          <rect
             x="356.89001"
             y="246.72"
             width="17.23"
             height="35.580002"
             rx="4.3099999"
             ry="4.3099999"
             transform="rotate(-51.21,365.49131,264.49867)"
             style="fill:#b7f9ff"
             id="rect526" />
          <rect
             x="355.04999"
             y="258.14001"
             width="2.54"
             height="35.580002"
             rx="1.27"
             ry="1.27"
             transform="rotate(-51.21,356.30604,275.92857)"
             style="fill:#b7f9ff"
             id="rect528" />
          <rect
             x="297.89999"
             y="210.35001"
             width="31.6"
             height="31.6"
             rx="4.3099999"
             ry="4.3099999"
             transform="rotate(-51.21,313.69024,226.1518)"
             style="fill:url(#radialGradient876)"
             id="rect530" />
          <rect
             x="303.31"
             y="215.75999"
             width="20.790001"
             height="20.790001"
             rx="4.3099999"
             ry="4.3099999"
             transform="rotate(-51.21,313.69024,226.1518)"
             style="fill:#b7f9ff"
             id="rect532" />
          <polygon
             points="307.11,268.62 313.7,268.62 313.7,258.07 286.8,235.92 282.58,240.4 305.27,258.86 "
             style="fill:#ffffff"
             id="polygon534" />
          <polygon
             points="344.32,217.91 343.51,212.71 323.46,194.77 320.63,194.94 320.23,197.61 339.48,216.6 "
             style="fill:#ffffff"
             id="polygon536" />
          <rect
             x="352.29001"
             y="261.57999"
             width="2.54"
             height="35.580002"
             rx="1.27"
             ry="1.27"
             transform="rotate(-51.21,353.54333,279.36439)"
             style="fill:#b7f9ff"
             id="rect538" />
          <path
             d="m 533.52,265.74 33.82,-28.03 18.73,23.69 c 1.55,2.03 3.63,3.26 5.43,1.46 l 2.01,-1.41 c 1.56,-1.56 1.65,-4.05 0.22,-5.72 l -21.57,-25.63 -5.26,0.64 -35.47,31.85 z"
             style="fill:#b7f9ff"
             id="path540" />
          <rect
             x="547.46002"
             y="246.72"
             width="17.23"
             height="35.580002"
             rx="4.3099999"
             ry="4.3099999"
             transform="rotate(-128.79,556.08481,264.50028)"
             style="fill:#b7f9ff"
             id="rect542" />
          <rect
             x="563.98999"
             y="258.14001"
             width="2.54"
             height="35.580002"
             rx="1.27"
             ry="1.27"
             transform="rotate(-128.79,565.26507,275.92041)"
             style="fill:#b7f9ff"
             id="rect544" />
          <rect
             x="592.08002"
             y="210.35001"
             width="31.6"
             height="31.6"
             rx="4.3099999"
             ry="4.3099999"
             transform="rotate(-128.79,607.89092,226.141)"
             style="fill:url(#bg)"
             id="rect546" />
          <rect
             x="597.48999"
             y="215.75999"
             width="20.790001"
             height="20.790001"
             rx="4.3099999"
             ry="4.3099999"
             transform="rotate(-128.79,607.89092,226.141)"
             style="fill:#b7f9ff"
             id="rect548" />
          <polygon
             points="614.47,268.62 607.88,268.62 607.88,258.07 634.78,235.92 639,240.4 616.32,258.86 "
             style="fill:#ffffff"
             id="polygon550" />
          <polygon
             points="577.26,217.91 578.07,212.71 598.12,194.77 600.95,194.94 601.35,197.61 582.1,216.6 "
             style="fill:#ffffff"
             id="polygon552" />
          <rect
             x="566.76001"
             y="261.57999"
             width="2.54"
             height="35.580002"
             rx="1.27"
             ry="1.27"
             transform="rotate(-128.79,568.03447,279.36431)"
             style="fill:#b7f9ff"
             id="rect554" />
        </g>
      </g>
      <g
         id="bh"
         transform="translate(93.206536,219.96742)">
        <path
           d="m 213.75,306.68 c -6.68,0 -17.27,2.33 -21.69,6.83 -9.91,10.1 -18.74,23.18 -23.28,39.72 h 89.94 c 0,-25.71 -20.13,-46.55 -44.97,-46.55 z"
           id="path558" />
        <path
           d="m 707.83,306.68 c 6.68,0 17.27,2.33 21.69,6.83 9.91,10.1 18.74,23.18 23.28,39.72 h -89.94 c 0,-25.71 20.13,-46.55 44.97,-46.55 z"
           id="path560" />
        <polygon
           points="216.84,334.7 216.84,319.27 389.86,301.4 383.12,319.27 "
           style="fill-rule:evenodd"
           id="polygon562" />
        <polygon
           points="704.74,334.7 704.74,319.27 531.73,301.4 538.47,319.27 "
           style="fill-rule:evenodd"
           id="polygon564" />
        <path
           d="m 381.67,367.34 -12.51,-57.5 -123.18,15.79 c -7.94,-8.81 -19.44,-14.34 -32.23,-14.34 -23.96,0 -43.39,19.43 -43.39,43.39 0,23.96 19.43,43.39 43.39,43.39 18.29,0 33.92,-11.32 40.31,-27.32 z"
           style="fill:#ffffff;fill-rule:evenodd"
           id="path566" />
        <path
           d="m 539.91,367.34 12.51,-57.5 123.18,15.79 c 7.94,-8.81 19.44,-14.34 32.23,-14.34 23.96,0 43.39,19.43 43.39,43.39 0,23.96 -19.43,43.39 -43.39,43.39 -18.29,0 -33.92,-11.32 -40.31,-27.32 z"
           style="fill:#ffffff;fill-rule:evenodd"
           id="path568" />
        <g
           id="bi">
          <g
             id="bj">
            <rect
               x="250.38"
               y="368.20001"
               width="47"
               height="3.3599999"
               transform="rotate(-1.45,274.31129,370.59854)"
               style="fill:#ffffff"
               id="rect570" />
            <polygon
               points="215.34,356.13 215.34,371.56 390.83,368.2 384,350.32 "
               style="fill:url(#linearGradient878);fill-rule:evenodd"
               id="polygon572" />
            <polygon
               points="706.25,356.13 706.25,371.56 530.75,368.2 537.58,350.32 "
               style="fill:url(#bl);fill-rule:evenodd"
               id="polygon574" />
          </g>
          <g
             id="bm">
            <path
               d="m 366.73,351.03 -120.01,9.9 -6.24,-30.99 125.62,-15.26 c -1.13,7.21 -2.18,19.92 0.63,36.35 z"
               style="fill:url(#linearGradient880);fill-rule:evenodd"
               id="path577" />
            <path
               d="m 554.85,351.03 120.01,9.9 6.24,-30.99 -125.62,-15.26 c 1.13,7.21 2.18,19.92 -0.63,36.35 z"
               style="fill:url(#bo);fill-rule:evenodd"
               id="path579" />
            <g
               id="bp">
              <polygon
                 points="342.02,347.51 340.41,327.15 368.31,327.15 368.31,347.51 "
                 id="polygon581" />
              <rect
                 x="340.39001"
                 y="316.12"
                 width="27.9"
                 height="17.360001"
                 transform="rotate(-6.96,354.25226,324.73727)"
                 style="fill:#00007b"
                 id="rect583" />
              <rect
                 x="553.28998"
                 y="316.12"
                 width="27.9"
                 height="17.360001"
                 transform="rotate(-173.04,567.24366,324.79343)"
                 style="fill:#00007b"
                 id="rect585" />
              <line
                 x1="368.20999"
                 y1="328.89999"
                 x2="340.94"
                 y2="332.22"
                 style="fill:none;stroke:#ffffff;stroke-width:6px;stroke-miterlimit:10"
                 id="line587" />
              <line
                 x1="368.22"
                 y1="346.12"
                 x2="342.12"
                 y2="349.29999"
                 style="fill:none;stroke:#ffffff;stroke-width:6px;stroke-miterlimit:10"
                 id="line589" />
              <polygon
                 points="579.56,347.51 581.17,327.15 553.27,327.15 553.27,347.51 "
                 id="polygon591" />
              <line
                 x1="553.37"
                 y1="328.89999"
                 x2="580.65002"
                 y2="332.22"
                 style="fill:none;stroke:#ffffff;stroke-width:6px;stroke-miterlimit:10"
                 id="line593" />
              <line
                 x1="553.35999"
                 y1="346.12"
                 x2="579.46002"
                 y2="349.29999"
                 style="fill:none;stroke:#ffffff;stroke-width:6px;stroke-miterlimit:10"
                 id="line595" />
              <line
                 x1="233.61"
                 y1="331.63"
                 x2="288.23001"
                 y2="330.23999"
                 style="fill:#ffffff;stroke:#000000;stroke-width:6px;stroke-miterlimit:10"
                 id="line597" />
            </g>
            <circle
               cx="213.75"
               cy="354.67999"
               r="40.09"
               style="fill:#0b2f72"
               id="circle600" />
            <circle
               cx="707.83002"
               cy="354.67999"
               r="40.09"
               style="fill:#0b2f72"
               id="circle602" />
            <circle
               cx="213.75"
               cy="354.67999"
               r="29.01"
               style="fill:#ffffff"
               id="circle604" />
            <circle
               cx="707.83002"
               cy="354.67999"
               r="29.01"
               style="fill:#ffffff"
               id="circle606" />
            <circle
               cx="213.75"
               cy="354.67999"
               r="16.879999"
               style="fill:#369acb"
               id="circle608" />
            <circle
               cx="707.83002"
               cy="354.67999"
               r="16.879999"
               style="fill:#369acb"
               id="circle610" />
            <path
               d="m 205.92,338.31 c 4.28,9.77 5.14,15.75 10.92,15.65 -4.25,-4.92 -3.28,-10.47 -4,-17.23 l -6.92,1.59 z"
               style="fill:#ffffff;fill-rule:evenodd"
               id="path612" />
            <path
               d="m 715.66,338.31 c -4.28,9.77 -5.14,15.75 -10.92,15.65 4.25,-4.92 3.28,-10.47 4,-17.23 l 6.92,1.59 z"
               style="fill:#ffffff;fill-rule:evenodd"
               id="path614" />
            <polygon
               points="290.77,357.34 285.81,316.64 293.48,315.71 298.47,356.67 "
               style="fill-rule:evenodd"
               id="polygon616" />
            <polygon
               points="630.81,357.34 635.78,316.64 628.1,315.71 623.11,356.67 "
               style="fill-rule:evenodd"
               id="polygon618" />
          </g>
        </g>
        <circle
           cx="460.79001"
           cy="331.20001"
           r="94.07"
           style="fill:#81f7fe;stroke:#001270;stroke-width:4px;stroke-miterlimit:10"
           id="circle622" />
        <circle
           cx="460.79001"
           cy="331.20001"
           r="58.73"
           style="fill:url(#bq)"
           id="circle624" />
        <circle
           cx="460.79001"
           cy="331.20001"
           r="76.790001"
           style="fill:#99fafe"
           id="circle626" />
        <circle
           cx="460.79001"
           cy="331.20001"
           r="55.080002"
           style="fill:#ffffff"
           id="circle628" />
        <circle
           cx="460.79001"
           cy="331.20001"
           r="53.919998"
           style="fill:none;stroke:#0074f6;stroke-width:5px;stroke-miterlimit:10"
           id="circle630" />
        <circle
           cx="460.79001"
           cy="331.20001"
           r="73.099998"
           style="fill:none;stroke:#005cd1;stroke-width:4px;stroke-miterlimit:10"
           id="circle632" />
        <circle
           cx="460.79001"
           cy="331.20001"
           r="79.120003"
           style="fill:none;stroke:#0d43b0;stroke-width:8px;stroke-miterlimit:10"
           id="circle634" />
        <circle
           cx="460.79001"
           cy="331.20001"
           r="33.540001"
           style="fill:#16ffff"
           id="circle636" />
        <polygon
           points="443.36,237.66 450.56,252.24 457.76,252.08 457.76,237.14 "
           style="fill:url(#linearGradient882)"
           id="polygon638" />
        <polygon
           points="478.22,237.66 471.02,252.24 463.82,252.08 463.82,237.14 "
           style="fill:url(#bs)"
           id="polygon640" />
        <circle
           cx="460.79001"
           cy="331.20001"
           r="25.49"
           style="fill:none;stroke:#ffffff;stroke-width:5px;stroke-miterlimit:10"
           id="circle642" />
        <polygon
           points="288.58,339.34 290.77,357.34 267.41,359.14 265.34,342.17 "
           style="fill:url(#linearGradient884);fill-rule:evenodd"
           id="polygon644" />
        <polygon
           points="633.01,339.34 630.81,357.34 654.17,359.14 656.24,342.17 "
           style="fill:url(#bu);fill-rule:evenodd"
           id="polygon646" />
      </g>
      <g
         id="bv"
         transform="translate(93.206536,219.96742)">
        <polygon
           points="461.76,529.8 479.43,529.8 481.8,416.3 461.76,416.3 441.71,416.3 444.09,529.8 "
           style="fill:#81f7fe;fill-rule:evenodd"
           id="polygon649" />
        <polygon
           points="461.76,529.8 476.25,529.8 479.43,408 461.76,408 444.09,408 447.27,529.8 "
           style="fill:url(#bw);fill-rule:evenodd"
           id="polygon651" />
      </g>
      <g
         id="bx"
         transform="translate(93.206536,219.96742)">
        <g
           id="g668">
          <g
             id="g658">
            <path
               d="m 445.47,588.26 -8.68,-5.99 v -48.46 c 0,-3.04 2.48,-5.52 5.52,-5.52 h 36.97 c 3.04,0 5.52,2.48 5.52,5.52 v 48.46 l -8.68,5.99 z"
               style="fill:#1d2572;fill-rule:evenodd"
               id="path654" />
            <path
               d="m 479.27,529.8 c 2.22,0 4.02,1.8 4.02,4.02 v 47.67 l -7.65,5.27 h -29.71 l -7.65,-5.27 v -47.67 c 0,-2.22 1.8,-4.02 4.02,-4.02 h 36.97 m 0,-3 H 442.3 c -3.87,0 -7.02,3.15 -7.02,7.02 v 49.25 l 1.3,0.89 7.65,5.27 0.77,0.53 h 31.58 l 0.77,-0.53 7.65,-5.27 1.3,-0.89 v -49.25 c 0,-3.87 -3.15,-7.02 -7.02,-7.02 v 0 z"
               style="fill:#ffffff"
               id="path656" />
          </g>
          <g
             id="g664">
            <rect
               x="451.98999"
               y="553.52002"
               width="17.6"
               height="20.459999"
               style="fill:#1d2572"
               id="rect660" />
            <path
               d="m 464.59,558.52 v 10.46 h -7.6 v -10.46 h 7.6 m 10,-10 h -27.6 v 27.69 l 2.77,2.77 h 22.07 l 2.77,-2.77 v -27.69 0 z"
               style="fill:#ffffff"
               id="path662" />
          </g>
          <polygon
             points="460.79,543.38 474.59,543.38 474.59,540.48 460.79,540.48 446.99,540.48 446.99,543.38 "
             style="fill:#ffffff;fill-rule:evenodd"
             id="polygon666" />
        </g>
      </g>
      <polygon
         points="460.79,425.16 468.66,425.16 468.66,409.17 460.79,409.17 452.92,409.17 452.92,425.16 "
         style="fill:#ffffff"
         id="polygon671"
         transform="translate(93.206536,219.96742)" />
      <g
         id="by"
         transform="translate(93.206536,219.96742)">
        <polygon
           points="294.42,323.4 298.47,356.67 331.55,353.95 326.02,319.67 "
           style="fill:#4a3a98;fill-rule:evenodd"
           id="polygon673" />
        <polygon
           points="627.16,323.4 623.11,356.67 590.03,353.95 595.57,319.67 "
           style="fill:#4a3a98;fill-rule:evenodd"
           id="polygon675" />
      </g>
      <g
         id="bz"
         transform="translate(93.206536,219.96742)">
        <g
           id="g684">
          <path
             d="m 329.29,319.16 c 1.22,14.47 2.87,27.42 5.98,34.46 l 7.96,-0.65 c -2.32,-5.12 -4.91,-20.73 -7.1,-34.65 z"
             style="fill:#07adf7"
             id="path678" />
          <path
             d="m 324.2,319.89 5.11,-0.62 c 0.52,12.09 2.42,23.57 5.96,34.35 l -5.14,0.45 c -2.3,-9.79 -4.19,-21.37 -5.93,-34.18 z"
             id="path680" />
          <path
             d="m 336.13,318.32 5.11,-0.67 c 0.52,12.09 2.9,24.17 6.44,34.95 l -4.44,0.37 c -2.5,-5.82 -6.26,-19.64 -7.1,-34.65 z"
             id="path682" />
        </g>
        <g
           id="g692">
          <path
             d="m 592.29,319.16 c -1.22,14.47 -2.87,27.42 -5.98,34.46 l -7.96,-0.65 c 2.32,-5.12 4.91,-20.73 7.1,-34.65 z"
             style="fill:#07adf7"
             id="path686" />
          <path
             d="m 597.39,319.89 -5.11,-0.62 c -0.52,12.09 -2.42,23.57 -5.96,34.35 l 5.14,0.45 c 2.3,-9.79 4.19,-21.37 5.93,-34.18 z"
             id="path688" />
          <path
             d="m 585.45,318.32 -5.11,-0.67 c -0.52,12.09 -2.9,24.17 -6.44,34.95 l 4.44,0.37 c 2.5,-5.82 6.26,-19.64 7.1,-34.65 z"
             id="path690" />
        </g>
      </g>
      <polygon
         points="460.79,494.46 467.69,494.46 468.66,443.66 460.79,443.66 452.92,443.66 453.89,494.46 "
         style="fill:#ffffff"
         id="polygon695"
         transform="translate(93.206536,219.96742)" />
      <polygon
         points="460.79,519.91 466.93,519.91 467.79,516.66 460.79,516.66 453.8,516.66 454.66,519.91 "
         style="fill:#ffffff"
         id="polygon697"
         transform="translate(93.206536,219.96742)" />
    </g>
  </g>
</svg>
